<svg id="Layer_1" enable-background="new 0 0 256 256" height="512" viewBox="0 0 256 256" width="512" xmlns="http://www.w3.org/2000/svg"><g><path d="m231 251h-206c-11.046 0-20-8.954-20-20v-206c0-11.046 8.954-20 20-20h206c11.046 0 20 8.954 20 20v206c0 11.046-8.954 20-20 20z" fill="#87828e"/><path id="XMLID_4_" d="m128 215.001 37.459-14.069v-46.197l-37.459 14.069z" fill="#5fcdff"/><path d="m218 233h-180c-8.284 0-15-6.716-15-15v-180c0-8.284 6.716-15 15-15h180c8.284 0 15 6.716 15 15v180c0 8.284-6.716 15-15 15z" fill="#ffe2e2"/><path id="XMLID_3_" d="m128 215.001-37.459-14.069v-46.197l37.459 14.069z" fill="#5fcdff"/><path d="m251 25v206c0 11.05-8.95 20-20 20h-15c11.05 0 20-8.95 20-20v-206c0-11.05-8.95-20-20-20h15c11.05 0 20 8.95 20 20z" fill="#796e84"/><path d="m40 251h-15c-11.05 0-20-8.95-20-20v-206c0-11.05 8.95-20 20-20h15c-11.05 0-20 8.95-20 20v206c0 11.05 8.95 20 20 20z" fill="#a4a4a5"/><path d="m233 38v180c0 8.28-6.72 15-15 15h-15c8.28 0 15-6.72 15-15v-180c0-8.28-6.72-15-15-15h15c8.28 0 15 6.72 15 15z" fill="#ffcfcf"/><path d="m53 233h-15c-8.28 0-15-6.72-15-15v-180c0-8.28 6.72-15 15-15h15c-8.28 0-15 6.72-15 15v180c0 8.28 6.72 15 15 15z" fill="#ffefee"/><path d="m23 57h210v16h-210z" fill="#b76c6c"/><path d="m218 57h15v16h-15z" fill="#965959"/><path d="m23 57h15v16h-15z" fill="#c98585"/><path d="m144.5 83.333h-33c-2.761 0-5-2.239-5-5v-28c0-2.761 2.239-5 5-5h33c2.761 0 5 2.239 5 5v28c0 2.762-2.239 5-5 5z" fill="#b76c6c"/><path d="m135.5 83.333h-15v34.333c0 1.657 1.343 3 3 3h9c1.657 0 3-1.343 3-3z" fill="#b76c6c"/><path d="m149.5 50.33v28c0 2.77-2.24 5-5 5h-15c2.76 0 5-2.23 5-5v-28c0-2.76-2.24-5-5-5h15c2.76 0 5 2.24 5 5z" fill="#965959"/><path d="m126.5 83.33h-15c-2.76 0-5-2.24-5-5v-28c0-2.76 2.24-5 5-5h15c-2.76 0-5 2.24-5 5v28c0 2.76 2.24 5 5 5z" fill="#c98585"/><path d="m105.54 160.37v46.19l-15-5.63v-46.19z" fill="#73d7f9"/><path id="XMLID_39_" d="m128 215.001 37.459-14.069v-46.197l-37.459 14.069z" fill="#5fcdff"/><path d="m143 163.17v46.2l-15 5.63v-46.2z" fill="#73d7f9"/><path d="m128 140.667-37.459 14.068 37.459 14.065 37.459-14.065z" fill="#5fcdff"/><path d="m143 146.3-15-5.63-37.46 14.07 37.46 14.06 15-5.63-22.46-8.43z" fill="#73d7f9"/><g fill="#5f266d"><path d="m231 1h-206c-13.23 0-24 10.77-24 24v206c0 13.23 10.77 24 24 24h206c13.23 0 24-10.77 24-24v-206c0-13.23-10.77-24-24-24zm16 230c0 8.82-7.18 16-16 16h-206c-8.82 0-16-7.18-16-16v-206c0-8.82 7.18-16 16-16h206c8.82 0 16 7.18 16 16z"/><path d="m218 19h-180c-10.48 0-19 8.52-19 19v180c0 10.48 8.52 19 19 19h180c10.48 0 19-8.52 19-19v-180c0-10.48-8.52-19-19-19zm-86 152.57 29.46-11.06v37.65l-29.46 11.07zm-4-7.04-26.08-9.79 26.08-9.8 26.08 9.8zm-33.46-4.02 29.46 11.06v37.66l-29.46-11.07zm36.96-43.84h-7v-29.34h7zm-20-37.34c-.55 0-1-.45-1-1v-28c0-.55.45-1 1-1h33c.55 0 1 .45 1 1v28c0 .55-.45 1-1 1-3.756 0-28.791 0-33 0zm-84.5-18.33h75.5v8h-75.5zm126.5 0h75.5v8h-75.5zm-115.5-34h180c6.07 0 11 4.93 11 11v15h-75.5v-2.67c0-4.96-4.04-9-9-9h-33c-4.96 0-9 4.04-9 9v2.67h-75.5v-15c0-6.07 4.93-11 11-11zm180 202h-180c-6.07 0-11-4.93-11-11v-141h75.5v1.33c0 4.97 4.04 9 9 9h5v30.34c0 3.86 3.14 7 7 7h.5v13.08c0 .05 0 .09.01.14-36.263 13.619-35.197 13.145-35.75 13.56-.948.609-1.72 1.878-1.72 3.28v46.2c0 1.67 1.03 3.16 2.59 3.75.196.074 37.487 14.089 37.69 14.14.702.263 1.785.215 2.36 0 .203-.051 37.494-14.066 37.69-14.14 1.56-.59 2.59-2.08 2.59-3.75v-46.2c0-1.403-.779-2.675-1.72-3.28-.582-.437 1.181.31-35.75-13.56.01-.05.01-.09.01-.14v-13.08h.5c3.86 0 7-3.14 7-7v-30.34h5c4.96 0 9-4.03 9-9v-1.33h75.5v141c0 6.07-4.93 11-11 11z"/><path d="m45 95.36v40c0 5.285 8 5.293 8 0v-40c0-5.285-8-5.293-8 0z"/><path d="m45 150.36v4.37c0 5.285 8 5.293 8 0v-4.37c0-5.285-8-5.293-8 0z"/></g></g></svg>