<?xml version="1.0" encoding="iso-8859-1"?>
<!-- Generator: Adobe Illustrator 19.0.0, SVG Export Plug-In . SVG Version: 6.00 Build 0)  -->
<svg version="1.1" id="Capa_1" xmlns="http://www.w3.org/2000/svg" xmlns:xlink="http://www.w3.org/1999/xlink" x="0px" y="0px"
	 viewBox="0 0 512 512" style="enable-background:new 0 0 512 512;" xml:space="preserve">
<circle style="fill:#F2F2F2;" cx="256" cy="256" r="248.471"/>
<path style="fill:#C6C6C6;" d="M57.851,256c0-128.733,97.9-234.597,223.309-247.21c-8.273-0.832-16.667-1.261-25.16-1.261
	C118.774,7.529,7.529,118.774,7.529,256S118.774,504.471,256,504.471c8.493,0,16.887-0.429,25.16-1.261
	C155.751,490.597,57.851,384.733,57.851,256z"/>
<circle style="fill:#36D4E0;" cx="257.375" cy="256" r="88.466"/>
<path style="fill:#C6C6C6;" d="M456.219,256C456.22,127.267,358.32,21.403,232.91,8.79c8.274-0.832,16.667-1.261,25.161-1.261
	c137.226,0,248.471,111.245,248.471,248.471S395.297,504.471,258.071,504.471c-8.493,0-16.887-0.429-25.161-1.261
	C358.32,490.597,456.22,384.733,456.219,256z"/>
<path d="M256,278.588c-12.456,0-22.588-10.133-22.588-22.588c0-12.456,10.133-22.588,22.588-22.588
	c12.456,0,22.588,10.133,22.588,22.588C278.588,268.456,268.456,278.588,256,278.588z M256,248.471
	c-4.152,0-7.529,3.377-7.529,7.529c0,4.152,3.377,7.529,7.529,7.529c4.152,0,7.529-3.377,7.529-7.529
	C263.529,251.848,260.152,248.471,256,248.471z"/>
<g>
	<path style="fill:#FFFFFF;" d="M256,278.588c-12.456,0-22.588-10.133-22.588-22.588c0-12.456,10.133-22.588,22.588-22.588
		c12.456,0,22.588,10.133,22.588,22.588C278.588,268.456,268.456,278.588,256,278.588z M256,248.471
		c-4.152,0-7.529,3.377-7.529,7.529c0,4.152,3.377,7.529,7.529,7.529c4.152,0,7.529-3.377,7.529-7.529
		C263.529,251.848,260.152,248.471,256,248.471z"/>
	<polygon style="fill:#FFFFFF;" points="265.735,223.677 256,213.942 246.265,223.677 235.617,213.029 256,192.647 276.383,213.029 
			"/>
	<polygon style="fill:#FFFFFF;" points="213.029,276.383 192.647,256 213.029,235.617 223.677,246.265 213.942,256 223.677,265.735 
			"/>
	<polygon style="fill:#FFFFFF;" points="256,319.353 235.617,298.971 246.265,288.323 256,298.058 265.735,288.323 276.383,298.971 
			"/>
	<polygon style="fill:#FFFFFF;" points="298.971,276.383 288.323,265.735 298.058,256 288.323,246.265 298.971,235.617 319.353,256 
			"/>
</g>
<path d="M437.019,74.981C388.667,26.629,324.38,0,256,0S123.333,26.629,74.981,74.981S0,187.62,0,256s26.629,132.667,74.981,181.019
	S187.62,512,256,512s132.667-26.629,181.019-74.981S512,324.38,512,256S485.371,123.333,437.019,74.981z M256,387.263
	c-40.917,0-80.245-5.572-115.199-16.064c-10.492-34.954-16.064-74.282-16.064-115.199s5.572-80.245,16.064-115.199
	c34.954-10.492,74.282-16.064,115.199-16.064c40.917,0,80.245,5.572,115.199,16.064c10.492,34.954,16.064,74.282,16.064,115.199
	c0,40.917-5.572,80.245-16.064,115.199C336.245,381.691,296.917,387.263,256,387.263z M365.48,388.46
	c-5.129,14.122-11.11,27.386-17.912,39.564c-24.825,44.442-57.344,68.917-91.568,68.917s-66.743-24.476-91.568-68.917
	c-6.802-12.178-12.783-25.441-17.912-39.564c33.78,9.069,70.99,13.861,109.48,13.861S331.701,397.53,365.48,388.46z M123.54,365.48
	c-14.122-5.129-27.386-11.11-39.564-17.912C39.534,322.743,15.059,290.224,15.059,256s24.476-66.743,68.917-91.568
	c12.178-6.802,25.441-12.783,39.564-17.912c-9.069,33.779-13.861,70.99-13.861,109.48S114.47,331.701,123.54,365.48z M146.52,123.54
	c5.129-14.122,11.11-27.386,17.912-39.564C189.257,39.534,221.776,15.059,256,15.059s66.743,24.476,91.568,68.918
	c6.802,12.178,12.783,25.441,17.912,39.564c-33.779-9.07-70.99-13.862-109.48-13.862S180.299,114.47,146.52,123.54z M388.46,146.52
	c14.122,5.129,27.386,11.11,39.564,17.912c44.442,24.825,68.917,57.344,68.917,91.568s-24.476,66.743-68.917,91.568
	c-12.178,6.802-25.441,12.783-39.564,17.912c9.069-33.78,13.861-70.99,13.861-109.48S397.53,180.299,388.46,146.52z M426.372,85.628
	c30.775,30.776,52.185,68.415,62.831,109.462c-12.863-16.2-30.966-31.03-53.835-43.805c-15.825-8.84-33.359-16.362-52.166-22.487
	c-6.126-18.806-13.647-36.341-22.487-52.166c-12.774-22.869-27.604-40.972-43.805-53.835
	C357.956,33.445,395.595,54.853,426.372,85.628z M85.628,85.628c30.775-30.775,68.415-52.185,109.462-62.831
	c-16.2,12.862-31.03,30.966-43.805,53.835c-8.84,15.825-16.362,33.359-22.487,52.166c-18.806,6.126-36.341,13.647-52.166,22.487
	C53.763,164.06,35.66,178.89,22.797,195.09C33.444,154.045,54.853,116.405,85.628,85.628z M85.628,426.372
	c-30.775-30.776-52.185-68.415-62.831-109.462c12.863,16.2,30.966,31.03,53.835,43.805c15.825,8.84,33.359,16.362,52.166,22.487
	c6.126,18.806,13.647,36.341,22.487,52.166c12.775,22.869,27.605,40.972,43.805,53.835
	C154.045,478.556,116.405,457.147,85.628,426.372z M426.372,426.372c-30.775,30.776-68.415,52.185-109.462,62.831
	c16.2-12.863,31.03-30.966,43.805-53.835c8.84-15.825,16.362-33.359,22.487-52.166c18.806-6.126,36.341-13.647,52.166-22.487
	c22.869-12.775,40.972-27.605,53.835-43.805C478.556,357.955,457.147,395.595,426.372,426.372z"/>
<g>
	<rect x="29.616" y="248.471" style="fill:#FFFFFF;" width="15.059" height="15.059"/>
	<rect x="466.322" y="248.471" style="fill:#FFFFFF;" width="15.059" height="15.059"/>
</g>
<g>
	<rect x="247.969" y="466.824" style="fill:#C6C6C6;" width="15.059" height="15.059"/>
	<rect x="247.969" y="30.118" style="fill:#C6C6C6;" width="15.059" height="15.059"/>
</g>
<g>
</g>
<g>
</g>
<g>
</g>
<g>
</g>
<g>
</g>
<g>
</g>
<g>
</g>
<g>
</g>
<g>
</g>
<g>
</g>
<g>
</g>
<g>
</g>
<g>
</g>
<g>
</g>
<g>
</g>
</svg>
